<svg width="110" height="30" viewBox="0 0 110 28" fill="none" xmlns="http://www.w3.org/2000/svg">
  <g clip-path="url(#clip0_1_819)">
  <mask id="mask0_1_819" maskUnits="userSpaceOnUse" x="0" y="0" width="110" height="28" style="mask-type: luminance;">
  <path d="M110 0.5H-3.05176e-05V27.5H110V0.5Z" fill="white"></path></mask><g mask="url(#mask0_1_819)"><path d="M45.5209 4.46106C43.4962 4.46106 42.0239 4.93808 40.7731 6.03848L38.5642 7.9458C38.3801 8.09293 38.0119 8.20289 37.7547 7.9822C37.4967 7.76227 37.4602 7.46878 37.6809 7.17529L38.8587 5.41434C39.0428 5.15725 38.896 4.82735 38.5642 4.82735H35.73C35.399 4.82735 35.1411 5.08444 35.1411 5.41434V22.584C35.1411 22.9139 35.399 23.171 35.73 23.171H38.6746C39.0056 23.171 39.2635 22.9139 39.2635 22.584V12.8987C39.2635 8.45998 42.9811 7.76303 44.3796 7.76303C47.3607 7.76303 48.4282 9.89104 48.4282 11.5048V22.584C48.4282 22.9139 48.6861 23.171 49.0171 23.171H51.9616C52.2926 23.171 52.5506 22.9139 52.5506 22.584V11.1378C52.5506 7.02892 49.864 4.46106 45.5209 4.46106Z" fill="black"></path><path d="M64.5487 4.38757C58.8437 4.38757 55.1999 7.87307 55.1999 12.6053V15.2104C55.1999 20.1997 58.8437 23.6117 64.5487 23.6117C69.591 23.6117 73.1244 21.0067 73.4927 17.4848C73.53 17.1177 73.2721 16.8614 72.9038 16.8614H70.033C69.7751 16.8614 69.5544 17.0085 69.4806 17.2648C69.1124 18.4388 67.3829 20.1997 64.5487 20.1997C61.7144 20.1997 59.0643 18.1453 59.1009 15.2104L59.1381 11.9456C59.1747 9.48766 61.7517 7.80027 64.5487 7.80027C67.0885 7.80027 69.5544 9.23133 69.8116 11.5793C69.8329 11.8508 69.6457 12.0957 69.3772 12.1473L61.1248 13.7437C60.7938 13.8172 60.5359 14.1107 60.5359 14.477V14.5134C60.5359 14.8433 60.8668 15.1368 61.3454 15.1368H73.1975C73.5231 15.1368 73.7864 14.8737 73.7864 14.5498V12.2391C73.7864 7.87383 69.995 4.38833 64.5479 4.38833L64.5487 4.38757Z" fill="black"></path><path d="M85.0861 4.38748C80.4851 4.38748 76.5103 7.06531 76.5103 10.5872C76.5103 10.8807 76.7683 11.1006 77.0992 11.1006H80.0803C80.3748 11.1006 80.5954 10.8807 80.6327 10.5872C80.9272 8.97339 82.878 7.79942 84.9758 7.79942C87.4783 7.79942 89.172 9.34044 89.172 11.9819V15.1739C89.172 18.4387 86.7425 20.0897 83.7241 20.0897C81.3685 20.0897 80.0065 19.2092 80.0065 17.7781C80.0065 16.5306 80.6692 15.4666 83.3924 14.8432L87.3307 13.7792C87.7354 13.6692 87.883 13.3386 87.8092 12.9723C87.7727 12.6788 87.4417 12.5317 87.1465 12.5317H83.0614C79.6017 12.5317 76.1048 14.7325 76.1048 17.9609V18.4743C76.1048 21.7763 79.2335 23.5001 82.8035 23.5001C85.0853 23.5001 87.0362 22.6196 88.2505 21.5928L90.0546 20.0518C90.349 19.7947 90.6435 19.7947 90.9006 20.0518C91.1213 20.2717 91.0475 20.6023 90.8634 20.8587L89.7593 22.5832C89.5752 22.8403 89.7221 23.1702 90.0538 23.1702H92.7039C93.0349 23.1702 93.2928 22.9131 93.2928 22.5832V11.4669C93.2928 7.21168 90.2379 4.38672 85.0846 4.38672L85.0861 4.38748Z" fill="black"></path><path d="M109.194 4.82812H105.071C103.636 4.82812 102.237 5.7086 101.243 6.55268L99.6241 7.94657C99.4399 8.0937 99.1082 8.20366 98.8875 8.02013C98.6296 7.8366 98.5193 7.46955 98.7407 7.17605L99.9185 5.41511C100.103 5.15802 99.9558 4.82812 99.6241 4.82812H96.8636C96.5326 4.82812 96.2747 5.08522 96.2747 5.41511V22.5847C96.2747 22.9146 96.5326 23.1717 96.8636 23.1717H99.882C100.213 23.1717 100.471 22.9146 100.471 22.5847V13.78C100.471 10.001 102.017 8.31363 105.367 8.31363H109.194C109.525 8.31363 109.783 8.05654 109.783 7.72663V5.41511C109.783 5.08522 109.525 4.82812 109.194 4.82812Z" fill="black"></path><path d="M24.0788 0.69043C23.0897 0.69043 22.1713 1.20157 21.6532 2.04185L16.0707 10.3029C15.8888 10.5752 15.9626 10.9422 16.2358 11.1235C16.4572 11.2706 16.7501 11.2524 16.9518 11.0795L22.4468 6.32896C22.5381 6.24706 22.6788 6.2554 22.761 6.3464C22.7983 6.38811 22.8181 6.44196 22.8181 6.49732V21.3707C22.8181 21.4935 22.7184 21.5921 22.5951 21.5921C22.5289 21.5921 22.4666 21.5633 22.4247 21.5125L5.81415 1.69452C5.27318 1.05824 4.47883 0.691189 3.64263 0.69043H3.06209C1.49089 0.69043 0.217194 1.95995 0.217194 3.526V24.4739C0.217194 26.04 1.49089 27.3095 3.06209 27.3095C4.05122 27.3095 4.96959 26.7984 5.48774 25.9581L11.0703 17.6971C11.2521 17.4248 11.1783 17.0578 10.9051 16.8765C10.6837 16.7294 10.3908 16.7476 10.1892 16.9205L4.69415 21.671C4.60285 21.7529 4.46209 21.7445 4.37992 21.6535C4.34263 21.6118 4.32285 21.558 4.32361 21.5026V6.62549C4.32361 6.50263 4.42328 6.40404 4.54654 6.40404C4.61198 6.40404 4.67513 6.43286 4.71698 6.48367L21.3253 26.3054C21.8662 26.9417 22.6606 27.3088 23.4968 27.3095H24.0773C25.6485 27.3103 26.923 26.0415 26.9245 24.4755V3.526C26.9245 1.95995 25.65 0.69043 24.0788 0.69043Z" fill="black"></path></g></g><defs><clipPath id="clip0_1_819"><rect width="110" height="28" fill="white"></rect></clipPath></defs>
</svg>
